<svg width="126" height="35" viewBox="0 0 126 35" fill="none" xmlns="http://www.w3.org/2000/svg">
<g clip-path="url(#clip0_227_164)">
<path d="M8.98672 6.82428V5.8283C8.98672 4.5864 9.10638 3.59657 9.99787 3.56583L13.6536 3.45517V0.104492H9.37562C6.81483 0.104492 4.7267 2.00423 4.7267 4.33433V8.17685C4.7267 10.9004 1.86076 11.2755 0 11.2755V14.6323C1.86076 14.6323 4.7267 15.6344 4.7267 18.3457V21.7578C4.7267 24.1064 6.81483 26 9.37562 26H13.6536V22.6554H9.92009C9.01065 22.6554 8.98672 21.5795 8.98672 20.2639V19.0834C8.98672 15.702 8.04736 12.9477 6.17463 12.9477C8.04736 12.9477 8.98672 10.1934 8.98672 6.82428Z" fill="#134687"/>
<path d="M28.3064 14.411C27.8277 13.6732 27.2294 13.0461 26.5054 12.5481C25.7815 12.044 25.0037 11.6198 24.172 11.2755C23.3344 10.9312 22.5566 10.593 21.8386 10.2611C21.1146 9.92291 20.5163 9.56018 20.0376 9.16056C19.559 8.76708 19.3197 8.25065 19.3197 7.62355C19.3197 6.87349 19.565 6.25869 20.0676 5.79144C20.5642 5.31804 21.1266 5.05368 21.7608 4.9922C22.389 4.93072 22.9993 5.09671 23.5916 5.49019C24.178 5.88981 24.5669 6.57224 24.7524 7.53133L28.2884 7.50059C28.085 6.20336 27.6303 5.1459 26.9183 4.31591C26.2063 3.49208 25.3806 2.88957 24.4472 2.51454C23.5079 2.13951 22.5207 1.97966 21.4856 2.04115C20.4505 2.10877 19.4992 2.36084 18.6316 2.80965C17.77 3.25845 17.052 3.904 16.4836 4.74013C15.9093 5.57626 15.628 6.59068 15.628 7.7834C15.628 8.97612 15.8674 9.90447 16.346 10.6361C16.8187 11.3677 17.423 11.9702 18.147 12.4559C18.8649 12.9354 19.6427 13.3351 20.4804 13.6609C21.3121 13.9868 22.0899 14.3249 22.8138 14.6815C23.5318 15.0381 24.1361 15.45 24.6148 15.9357C25.0934 16.4152 25.3327 17.0546 25.3327 17.8477C25.3327 18.4133 25.1832 18.9113 24.89 19.354C24.5908 19.7905 24.2139 20.1409 23.7412 20.3991C23.2745 20.6635 22.76 20.8172 22.2035 20.8725C21.6411 20.9217 21.1086 20.8541 20.6001 20.6512C20.0915 20.4545 19.6368 20.1163 19.2299 19.6306C18.8231 19.1511 18.5359 18.5056 18.3743 17.6879L14.8024 17.6264C15.0058 19.1327 15.4964 20.3684 16.2802 21.3398C17.064 22.3112 17.9794 23.0244 19.0265 23.4732C20.0735 23.922 21.1924 24.1249 22.3711 24.0695C23.5498 24.0203 24.6327 23.7252 25.6199 23.1904C26.6072 22.6616 27.4209 21.8931 28.0611 20.8848C28.7013 19.8827 29.0244 18.6716 29.0244 17.2514C29.0244 16.1017 28.785 15.1549 28.3064 14.411Z" fill="#134687"/>
<path d="M44.8139 14.411C44.3353 13.6732 43.737 13.0461 43.013 12.5481C42.289 12.044 41.5112 11.6198 40.6796 11.2755C39.8419 10.9312 39.0641 10.593 38.3461 10.2611C37.6222 9.92291 37.0239 9.56018 36.5452 9.16056C36.0666 8.76708 35.8272 8.25065 35.8272 7.62355C35.8272 6.87349 36.0785 6.25869 36.5751 5.79144C37.0717 5.31804 37.6401 5.05368 38.2684 4.9922C38.8966 4.93072 39.5069 5.09671 40.0992 5.49019C40.6856 5.88981 41.0745 6.57224 41.2599 7.53133L44.796 7.50059C44.5926 6.20336 44.1378 5.1459 43.4258 4.31591C42.7139 3.49208 41.8882 2.88957 40.9548 2.51454C40.0154 2.13951 39.0282 1.97966 37.9931 2.04115C36.958 2.10877 36.0067 2.36084 35.1392 2.80965C34.2776 3.25845 33.5596 3.904 32.9912 4.74013C32.4168 5.57626 32.1356 6.59068 32.1356 7.7834C32.1356 8.97612 32.3749 9.90447 32.8536 10.6361C33.3322 11.3677 33.9306 11.9702 34.6545 12.4559C35.3725 12.9354 36.1503 13.3351 36.988 13.6609C37.8196 13.9868 38.5974 14.3249 39.3214 14.6815C40.0454 15.0381 40.6437 15.45 41.1223 15.9357C41.601 16.4152 41.8403 17.0546 41.8403 17.8477C41.8403 18.4133 41.6907 18.9113 41.3976 19.354C41.0984 19.7905 40.7215 20.1409 40.2488 20.3991C39.7821 20.6635 39.2675 20.8172 38.7111 20.8725C38.1487 20.9217 37.6162 20.8541 37.1076 20.6512C36.5991 20.4545 36.1443 20.1163 35.7375 19.6306C35.3306 19.1511 35.0434 18.5056 34.8819 17.6879L31.3099 17.6264C31.5134 19.1327 32.01 20.3684 32.7938 21.3398C33.5716 22.3112 34.487 23.0244 35.5341 23.4732C36.5871 23.922 37.7 24.1249 38.8786 24.0695C40.0573 24.0203 41.1403 23.7252 42.1275 23.1904C43.1147 22.6616 43.9284 21.8931 44.5686 20.8848C45.2088 19.8827 45.5319 18.6716 45.5319 17.2514C45.5319 16.1017 45.2926 15.1549 44.8139 14.411Z" fill="#134687"/>
<path d="M62.0575 6.99023L63.8165 12.8862H60.101L62.0575 6.99023Z" fill="#134687"/>
<path d="M77.8829 12.4498C77.7453 12.0563 77.5419 11.712 77.2786 11.4046C77.0154 11.0972 76.7042 10.8574 76.3453 10.6853C75.9863 10.507 75.5734 10.4209 75.1247 10.4209C74.6759 10.4209 74.2811 10.507 73.9221 10.673C73.5631 10.839 73.252 11.0664 73.0007 11.3616C72.7434 11.6505 72.54 11.9886 72.3904 12.376C72.2468 12.7633 72.163 13.1629 72.151 13.5871V13.8085C72.163 14.2265 72.2468 14.6323 72.3904 15.0196C72.54 15.4008 72.7434 15.7389 73.0007 16.0341C73.252 16.323 73.5631 16.5505 73.9221 16.7226C74.2811 16.8886 74.6819 16.9686 75.1247 16.9686C75.5674 16.9686 75.9863 16.8825 76.3453 16.7103C76.7042 16.532 77.0154 16.2923 77.2786 15.991C77.5419 15.6836 77.7453 15.3332 77.8829 14.9397C78.0265 14.5462 78.0983 14.1343 78.0983 13.6978C78.0983 13.2613 78.0265 12.8432 77.8829 12.4498ZM90.4655 12.4498C90.3219 12.0563 90.1185 11.712 89.8612 11.4046C89.598 11.0972 89.2868 10.8574 88.9219 10.6853C88.5629 10.507 88.156 10.4209 87.7013 10.4209C87.2466 10.4209 86.8637 10.507 86.4987 10.673C86.1397 10.839 85.8346 11.0664 85.5773 11.3616C85.32 11.6505 85.1226 11.9886 84.973 12.376C84.8234 12.7633 84.7396 13.1629 84.7277 13.5871V13.8085C84.7396 14.2265 84.8234 14.6323 84.973 15.0196C85.1226 15.4008 85.32 15.7389 85.5773 16.0341C85.8346 16.323 86.1397 16.5505 86.4987 16.7226C86.8637 16.8886 87.2645 16.9686 87.7013 16.9686C88.1381 16.9686 88.5629 16.8825 88.9219 16.7103C89.2868 16.532 89.598 16.2923 89.8612 15.991C90.1185 15.6836 90.3219 15.3332 90.4655 14.9397C90.6031 14.5462 90.6749 14.1343 90.6749 13.6978C90.6749 13.2613 90.6031 12.8432 90.4655 12.4498ZM90.4655 12.4498C90.3219 12.0563 90.1185 11.712 89.8612 11.4046C89.598 11.0972 89.2868 10.8574 88.9219 10.6853C88.5629 10.507 88.156 10.4209 87.7013 10.4209C87.2466 10.4209 86.8637 10.507 86.4987 10.673C86.1397 10.839 85.8346 11.0664 85.5773 11.3616C85.32 11.6505 85.1226 11.9886 84.973 12.376C84.8234 12.7633 84.7396 13.1629 84.7277 13.5871V13.8085C84.7396 14.2265 84.8234 14.6323 84.973 15.0196C85.1226 15.4008 85.32 15.7389 85.5773 16.0341C85.8346 16.323 86.1397 16.5505 86.4987 16.7226C86.8637 16.8886 87.2645 16.9686 87.7013 16.9686C88.1381 16.9686 88.5629 16.8825 88.9219 16.7103C89.2868 16.532 89.598 16.2923 89.8612 15.991C90.1185 15.6836 90.3219 15.3332 90.4655 14.9397C90.6031 14.5462 90.6749 14.1343 90.6749 13.6978C90.6749 13.2613 90.6031 12.8432 90.4655 12.4498ZM77.8829 12.4498C77.7453 12.0563 77.5419 11.712 77.2786 11.4046C77.0154 11.0972 76.7042 10.8574 76.3453 10.6853C75.9863 10.507 75.5734 10.4209 75.1247 10.4209C74.6759 10.4209 74.2811 10.507 73.9221 10.673C73.5631 10.839 73.252 11.0664 73.0007 11.3616C72.7434 11.6505 72.54 11.9886 72.3904 12.376C72.2468 12.7633 72.163 13.1629 72.151 13.5871V13.8085C72.163 14.2265 72.2468 14.6323 72.3904 15.0196C72.54 15.4008 72.7434 15.7389 73.0007 16.0341C73.252 16.323 73.5631 16.5505 73.9221 16.7226C74.2811 16.8886 74.6819 16.9686 75.1247 16.9686C75.5674 16.9686 75.9863 16.8825 76.3453 16.7103C76.7042 16.532 77.0154 16.2923 77.2786 15.991C77.5419 15.6836 77.7453 15.3332 77.8829 14.9397C78.0265 14.5462 78.0983 14.1343 78.0983 13.6978C78.0983 13.2613 78.0265 12.8432 77.8829 12.4498ZM77.8829 12.4498C77.7453 12.0563 77.5419 11.712 77.2786 11.4046C77.0154 11.0972 76.7042 10.8574 76.3453 10.6853C75.9863 10.507 75.5734 10.4209 75.1247 10.4209C74.6759 10.4209 74.2811 10.507 73.9221 10.673C73.5631 10.839 73.252 11.0664 73.0007 11.3616C72.7434 11.6505 72.54 11.9886 72.3904 12.376C72.2468 12.7633 72.163 13.1629 72.151 13.5871V13.8085C72.163 14.2265 72.2468 14.6323 72.3904 15.0196C72.54 15.4008 72.7434 15.7389 73.0007 16.0341C73.252 16.323 73.5631 16.5505 73.9221 16.7226C74.2811 16.8886 74.6819 16.9686 75.1247 16.9686C75.5674 16.9686 75.9863 16.8825 76.3453 16.7103C76.7042 16.532 77.0154 16.2923 77.2786 15.991C77.5419 15.6836 77.7453 15.3332 77.8829 14.9397C78.0265 14.5462 78.0983 14.1343 78.0983 13.6978C78.0983 13.2613 78.0265 12.8432 77.8829 12.4498ZM90.4655 12.4498C90.3219 12.0563 90.1185 11.712 89.8612 11.4046C89.598 11.0972 89.2868 10.8574 88.9219 10.6853C88.5629 10.507 88.156 10.4209 87.7013 10.4209C87.2466 10.4209 86.8637 10.507 86.4987 10.673C86.1397 10.839 85.8346 11.0664 85.5773 11.3616C85.32 11.6505 85.1226 11.9886 84.973 12.376C84.8234 12.7633 84.7396 13.1629 84.7277 13.5871V13.8085C84.7396 14.2265 84.8234 14.6323 84.973 15.0196C85.1226 15.4008 85.32 15.7389 85.5773 16.0341C85.8346 16.323 86.1397 16.5505 86.4987 16.7226C86.8637 16.8886 87.2645 16.9686 87.7013 16.9686C88.1381 16.9686 88.5629 16.8825 88.9219 16.7103C89.2868 16.532 89.598 16.2923 89.8612 15.991C90.1185 15.6836 90.3219 15.3332 90.4655 14.9397C90.6031 14.5462 90.6749 14.1343 90.6749 13.6978C90.6749 13.2613 90.6031 12.8432 90.4655 12.4498ZM90.4655 12.4498C90.3219 12.0563 90.1185 11.712 89.8612 11.4046C89.598 11.0972 89.2868 10.8574 88.9219 10.6853C88.5629 10.507 88.156 10.4209 87.7013 10.4209C87.2466 10.4209 86.8637 10.507 86.4987 10.673C86.1397 10.839 85.8346 11.0664 85.5773 11.3616C85.32 11.6505 85.1226 11.9886 84.973 12.376C84.8234 12.7633 84.7396 13.1629 84.7277 13.5871V13.8085C84.7396 14.2265 84.8234 14.6323 84.973 15.0196C85.1226 15.4008 85.32 15.7389 85.5773 16.0341C85.8346 16.323 86.1397 16.5505 86.4987 16.7226C86.8637 16.8886 87.2645 16.9686 87.7013 16.9686C88.1381 16.9686 88.5629 16.8825 88.9219 16.7103C89.2868 16.532 89.598 16.2923 89.8612 15.991C90.1185 15.6836 90.3219 15.3332 90.4655 14.9397C90.6031 14.5462 90.6749 14.1343 90.6749 13.6978C90.6749 13.2613 90.6031 12.8432 90.4655 12.4498ZM77.8829 12.4498C77.7453 12.0563 77.5419 11.712 77.2786 11.4046C77.0154 11.0972 76.7042 10.8574 76.3453 10.6853C75.9863 10.507 75.5734 10.4209 75.1247 10.4209C74.6759 10.4209 74.2811 10.507 73.9221 10.673C73.5631 10.839 73.252 11.0664 73.0007 11.3616C72.7434 11.6505 72.54 11.9886 72.3904 12.376C72.2468 12.7633 72.163 13.1629 72.151 13.5871V13.8085C72.163 14.2265 72.2468 14.6323 72.3904 15.0196C72.54 15.4008 72.7434 15.7389 73.0007 16.0341C73.252 16.323 73.5631 16.5505 73.9221 16.7226C74.2811 16.8886 74.6819 16.9686 75.1247 16.9686C75.5674 16.9686 75.9863 16.8825 76.3453 16.7103C76.7042 16.532 77.0154 16.2923 77.2786 15.991C77.5419 15.6836 77.7453 15.3332 77.8829 14.9397C78.0265 14.5462 78.0983 14.1343 78.0983 13.6978C78.0983 13.2613 78.0265 12.8432 77.8829 12.4498ZM118 0H47.7756V25.8955H113.465L112.448 19.3171L118 21.5673V0ZM65.7969 19.4831L64.4747 15.118H59.377L57.9949 19.4585H55.4461C56.2957 16.9255 57.1393 14.411 57.9769 11.9149C58.8086 9.41877 59.6522 6.90423 60.5018 4.37125H63.5832C64.3909 6.90423 65.1866 9.42492 65.9645 11.9272C66.7423 14.4294 67.538 16.9501 68.3458 19.4831H65.7969ZM80.2463 15.8373C80.0189 16.5074 79.6898 17.0854 79.2531 17.5834C78.8223 18.0752 78.3017 18.4687 77.6855 18.7638C77.0692 19.0527 76.3752 19.2003 75.6093 19.2003C74.8913 19.2003 74.2392 19.0712 73.6588 18.8191C73.0784 18.5609 72.5759 18.2166 72.151 17.7801V23.301H69.8116V8.4105H72.151V9.61551C72.5759 9.179 73.0784 8.82856 73.6588 8.5765C74.2392 8.32443 74.8913 8.19532 75.6093 8.19532C76.3752 8.19532 77.0692 8.34287 77.6855 8.63183C78.3017 8.92078 78.8223 9.31426 79.2531 9.81225C79.6898 10.3041 80.0189 10.8882 80.2463 11.5583C80.4676 12.2284 80.5813 12.9416 80.5813 13.6978C80.5813 14.454 80.4676 15.1672 80.2463 15.8373ZM92.8229 15.8373C92.5955 16.5074 92.2665 17.0854 91.8357 17.5834C91.4049 18.0752 90.8784 18.4687 90.2621 18.7638C89.6458 19.0527 88.9578 19.2003 88.1919 19.2003C87.468 19.2003 86.8158 19.0712 86.2354 18.8191C85.6551 18.5609 85.1525 18.2166 84.7277 17.7801V23.301H82.3882V8.4105H84.7277V9.61551C85.1525 9.179 85.6551 8.82856 86.2354 8.5765C86.8158 8.32443 87.468 8.19532 88.1919 8.19532C88.9578 8.19532 89.6458 8.34287 90.2621 8.63183C90.8784 8.92078 91.4049 9.31426 91.8357 9.81225C92.2665 10.3041 92.5955 10.8882 92.8229 11.5583C93.0502 12.2284 93.1639 12.9416 93.1639 13.6978C93.1639 14.454 93.0502 15.1672 92.8229 15.8373ZM97.394 19.4831H95.0307V4.41428H97.394V19.4831ZM103.467 23.9773H100.876L103.599 17.7985L99.1531 8.39205H101.768L104.873 14.9397L107.739 8.39205H110.33L103.467 23.9773ZM89.8612 11.4046C89.598 11.0972 89.2868 10.8574 88.9219 10.6853C88.5629 10.507 88.156 10.4209 87.7013 10.4209C87.2466 10.4209 86.8637 10.507 86.4987 10.673C86.1397 10.839 85.8346 11.0664 85.5773 11.3616C85.32 11.6505 85.1226 11.9886 84.973 12.376C84.8234 12.7633 84.7396 13.1629 84.7277 13.5871V13.8085C84.7396 14.2265 84.8234 14.6323 84.973 15.0196C85.1226 15.4008 85.32 15.7389 85.5773 16.0341C85.8346 16.323 86.1397 16.5505 86.4987 16.7226C86.8637 16.8886 87.2645 16.9686 87.7013 16.9686C88.1381 16.9686 88.5629 16.8825 88.9219 16.7103C89.2868 16.532 89.598 16.2923 89.8612 15.991C90.1185 15.6836 90.3219 15.3332 90.4655 14.9397C90.6031 14.5462 90.6749 14.1343 90.6749 13.6978C90.6749 13.2613 90.6031 12.8432 90.4655 12.4498C90.3219 12.0563 90.1185 11.712 89.8612 11.4046ZM77.2786 11.4046C77.0154 11.0972 76.7042 10.8574 76.3453 10.6853C75.9863 10.507 75.5734 10.4209 75.1247 10.4209C74.6759 10.4209 74.2811 10.507 73.9221 10.673C73.5631 10.839 73.252 11.0664 73.0007 11.3616C72.7434 11.6505 72.54 11.9886 72.3904 12.376C72.2468 12.7633 72.163 13.1629 72.151 13.5871V13.8085C72.163 14.2265 72.2468 14.6323 72.3904 15.0196C72.54 15.4008 72.7434 15.7389 73.0007 16.0341C73.252 16.323 73.5631 16.5505 73.9221 16.7226C74.2811 16.8886 74.6819 16.9686 75.1247 16.9686C75.5674 16.9686 75.9863 16.8825 76.3453 16.7103C76.7042 16.532 77.0154 16.2923 77.2786 15.991C77.5419 15.6836 77.7453 15.3332 77.8829 14.9397C78.0265 14.5462 78.0983 14.1343 78.0983 13.6978C78.0983 13.2613 78.0265 12.8432 77.8829 12.4498C77.7453 12.0563 77.5419 11.712 77.2786 11.4046ZM77.8829 12.4498C77.7453 12.0563 77.5419 11.712 77.2786 11.4046C77.0154 11.0972 76.7042 10.8574 76.3453 10.6853C75.9863 10.507 75.5734 10.4209 75.1247 10.4209C74.6759 10.4209 74.2811 10.507 73.9221 10.673C73.5631 10.839 73.252 11.0664 73.0007 11.3616C72.7434 11.6505 72.54 11.9886 72.3904 12.376C72.2468 12.7633 72.163 13.1629 72.151 13.5871V13.8085C72.163 14.2265 72.2468 14.6323 72.3904 15.0196C72.54 15.4008 72.7434 15.7389 73.0007 16.0341C73.252 16.323 73.5631 16.5505 73.9221 16.7226C74.2811 16.8886 74.6819 16.9686 75.1247 16.9686C75.5674 16.9686 75.9863 16.8825 76.3453 16.7103C76.7042 16.532 77.0154 16.2923 77.2786 15.991C77.5419 15.6836 77.7453 15.3332 77.8829 14.9397C78.0265 14.5462 78.0983 14.1343 78.0983 13.6978C78.0983 13.2613 78.0265 12.8432 77.8829 12.4498ZM90.4655 12.4498C90.3219 12.0563 90.1185 11.712 89.8612 11.4046C89.598 11.0972 89.2868 10.8574 88.9219 10.6853C88.5629 10.507 88.156 10.4209 87.7013 10.4209C87.2466 10.4209 86.8637 10.507 86.4987 10.673C86.1397 10.839 85.8346 11.0664 85.5773 11.3616C85.32 11.6505 85.1226 11.9886 84.973 12.376C84.8234 12.7633 84.7396 13.1629 84.7277 13.5871V13.8085C84.7396 14.2265 84.8234 14.6323 84.973 15.0196C85.1226 15.4008 85.32 15.7389 85.5773 16.0341C85.8346 16.323 86.1397 16.5505 86.4987 16.7226C86.8637 16.8886 87.2645 16.9686 87.7013 16.9686C88.1381 16.9686 88.5629 16.8825 88.9219 16.7103C89.2868 16.532 89.598 16.2923 89.8612 15.991C90.1185 15.6836 90.3219 15.3332 90.4655 14.9397C90.6031 14.5462 90.6749 14.1343 90.6749 13.6978C90.6749 13.2613 90.6031 12.8432 90.4655 12.4498ZM90.4655 12.4498C90.3219 12.0563 90.1185 11.712 89.8612 11.4046C89.598 11.0972 89.2868 10.8574 88.9219 10.6853C88.5629 10.507 88.156 10.4209 87.7013 10.4209C87.2466 10.4209 86.8637 10.507 86.4987 10.673C86.1397 10.839 85.8346 11.0664 85.5773 11.3616C85.32 11.6505 85.1226 11.9886 84.973 12.376C84.8234 12.7633 84.7396 13.1629 84.7277 13.5871V13.8085C84.7396 14.2265 84.8234 14.6323 84.973 15.0196C85.1226 15.4008 85.32 15.7389 85.5773 16.0341C85.8346 16.323 86.1397 16.5505 86.4987 16.7226C86.8637 16.8886 87.2645 16.9686 87.7013 16.9686C88.1381 16.9686 88.5629 16.8825 88.9219 16.7103C89.2868 16.532 89.598 16.2923 89.8612 15.991C90.1185 15.6836 90.3219 15.3332 90.4655 14.9397C90.6031 14.5462 90.6749 14.1343 90.6749 13.6978C90.6749 13.2613 90.6031 12.8432 90.4655 12.4498ZM77.8829 12.4498C77.7453 12.0563 77.5419 11.712 77.2786 11.4046C77.0154 11.0972 76.7042 10.8574 76.3453 10.6853C75.9863 10.507 75.5734 10.4209 75.1247 10.4209C74.6759 10.4209 74.2811 10.507 73.9221 10.673C73.5631 10.839 73.252 11.0664 73.0007 11.3616C72.7434 11.6505 72.54 11.9886 72.3904 12.376C72.2468 12.7633 72.163 13.1629 72.151 13.5871V13.8085C72.163 14.2265 72.2468 14.6323 72.3904 15.0196C72.54 15.4008 72.7434 15.7389 73.0007 16.0341C73.252 16.323 73.5631 16.5505 73.9221 16.7226C74.2811 16.8886 74.6819 16.9686 75.1247 16.9686C75.5674 16.9686 75.9863 16.8825 76.3453 16.7103C76.7042 16.532 77.0154 16.2923 77.2786 15.991C77.5419 15.6836 77.7453 15.3332 77.8829 14.9397C78.0265 14.5462 78.0983 14.1343 78.0983 13.6978C78.0983 13.2613 78.0265 12.8432 77.8829 12.4498ZM77.8829 12.4498C77.7453 12.0563 77.5419 11.712 77.2786 11.4046C77.0154 11.0972 76.7042 10.8574 76.3453 10.6853C75.9863 10.507 75.5734 10.4209 75.1247 10.4209C74.6759 10.4209 74.2811 10.507 73.9221 10.673C73.5631 10.839 73.252 11.0664 73.0007 11.3616C72.7434 11.6505 72.54 11.9886 72.3904 12.376C72.2468 12.7633 72.163 13.1629 72.151 13.5871V13.8085C72.163 14.2265 72.2468 14.6323 72.3904 15.0196C72.54 15.4008 72.7434 15.7389 73.0007 16.0341C73.252 16.323 73.5631 16.5505 73.9221 16.7226C74.2811 16.8886 74.6819 16.9686 75.1247 16.9686C75.5674 16.9686 75.9863 16.8825 76.3453 16.7103C76.7042 16.532 77.0154 16.2923 77.2786 15.991C77.5419 15.6836 77.7453 15.3332 77.8829 14.9397C78.0265 14.5462 78.0983 14.1343 78.0983 13.6978C78.0983 13.2613 78.0265 12.8432 77.8829 12.4498ZM77.8829 12.4498C77.7453 12.0563 77.5419 11.712 77.2786 11.4046C77.0154 11.0972 76.7042 10.8574 76.3453 10.6853C75.9863 10.507 75.5734 10.4209 75.1247 10.4209C74.6759 10.4209 74.2811 10.507 73.9221 10.673C73.5631 10.839 73.252 11.0664 73.0007 11.3616C72.7434 11.6505 72.54 11.9886 72.3904 12.376C72.2468 12.7633 72.163 13.1629 72.151 13.5871V13.8085C72.163 14.2265 72.2468 14.6323 72.3904 15.0196C72.54 15.4008 72.7434 15.7389 73.0007 16.0341C73.252 16.323 73.5631 16.5505 73.9221 16.7226C74.2811 16.8886 74.6819 16.9686 75.1247 16.9686C75.5674 16.9686 75.9863 16.8825 76.3453 16.7103C76.7042 16.532 77.0154 16.2923 77.2786 15.991C77.5419 15.6836 77.7453 15.3332 77.8829 14.9397C78.0265 14.5462 78.0983 14.1343 78.0983 13.6978C78.0983 13.2613 78.0265 12.8432 77.8829 12.4498Z" fill="#134687"/>
</g>
<g clip-path="url(#clip1_227_164)">
<path d="M124.017 24.9535L121.355 27.1085L125.137 31.716L122.132 34.1502L118.343 29.5428L115.522 31.8252L113.771 20.9531L124.017 24.9535Z" fill="#134687"/>
</g>
<defs>
<clipPath id="clip0_227_164">
<rect width="118" height="26" fill="white"/>
</clipPath>
<clipPath id="clip1_227_164">
<rect width="13" height="15" fill="white" transform="translate(113 20)"/>
</clipPath>
</defs>
</svg>
